<svg width="1320" height="240" viewBox="0 0 132 24" fill="none" xmlns="http://www.w3.org/2000/svg"><path d="M59.7461 11.8355C59.7461 10.5832 60.0026 9.4742 60.5156 8.50854C61.0437 7.54288 61.7529 6.796 62.6431 6.2679C63.5484 5.72472 64.5442 5.45312 65.6306 5.45312C66.6114 5.45312 67.4638 5.64927 68.1881 6.04157C68.9274 6.41879 69.5159 6.89407 69.9534 7.46744V5.65682H72.5562V18.1274H69.9534V16.2716C69.5159 16.86 68.9199 17.3504 68.1655 17.7427C67.411 18.135 66.551 18.3311 65.5853 18.3311C64.5141 18.3311 63.5333 18.0595 62.6431 17.5164C61.7529 16.9581 61.0437 16.1886 60.5156 15.2078C60.0026 14.212 59.7461 13.0879 59.7461 11.8355ZM69.9534 11.8808C69.9534 11.0208 69.7724 10.2739 69.4103 9.64017C69.0632 9.00646 68.603 8.52363 68.0297 8.19168C67.4563 7.85974 66.8377 7.69376 66.1738 7.69376C65.5099 7.69376 64.8913 7.85974 64.3179 8.19168C63.7445 8.50854 63.2768 8.98383 62.9147 9.61754C62.5676 10.2362 62.3941 10.9755 62.3941 11.8355C62.3941 12.6956 62.5676 13.45 62.9147 14.0988C63.2768 14.7476 63.7445 15.2455 64.3179 15.5926C64.9064 15.9245 65.525 16.0905 66.1738 16.0905C66.8377 16.0905 67.4563 15.9245 68.0297 15.5926C68.603 15.2606 69.0632 14.7778 69.4103 14.1441C69.7724 13.4953 69.9534 12.7409 69.9534 11.8808Z" fill="#2D77B1"></path><path d="M52.2336 16.022H57.8918V18.1269H49.2461V16.022L54.9269 7.76109H49.2461V5.65625H57.8918V7.76109L52.2336 16.022Z" fill="#2D77B1"></path><path d="M45.2889 4.0075C44.8212 4.0075 44.4289 3.84907 44.112 3.53221C43.7951 3.21536 43.6367 2.82306 43.6367 2.35531C43.6367 1.88757 43.7951 1.49527 44.112 1.17841C44.4289 0.861554 44.8212 0.703125 45.2889 0.703125C45.7416 0.703125 46.1263 0.861554 46.4432 1.17841C46.76 1.49527 46.9185 1.88757 46.9185 2.35531C46.9185 2.82306 46.76 3.21536 46.4432 3.53221C46.1263 3.84907 45.7416 4.0075 45.2889 4.0075ZM46.5563 5.65969V18.1303H43.9762V5.65969H46.5563Z" fill="#2D77B1"></path><path d="M40.5958 1.38281V18.131H38.0156V1.38281H40.5958Z" fill="#2D77B1"></path><path d="M33.3553 4.0075C32.8876 4.0075 32.4953 3.84907 32.1784 3.53221C31.8616 3.21536 31.7031 2.82306 31.7031 2.35531C31.7031 1.88757 31.8616 1.49527 32.1784 1.17841C32.4953 0.861554 32.8876 0.703125 33.3553 0.703125C33.808 0.703125 34.1927 0.861554 34.5096 1.17841C34.8264 1.49527 34.9849 1.88757 34.9849 2.35531C34.9849 2.82306 34.8264 3.21536 34.5096 3.53221C34.1927 3.84907 33.808 4.0075 33.3553 4.0075ZM34.6227 5.65969V18.1303H32.0426V5.65969H34.6227Z" fill="#2D77B1"></path><path d="M21.7361 5.45312C22.7017 5.45312 23.5542 5.64927 24.2936 6.04157C25.048 6.41879 25.6364 6.89407 26.0589 7.46744V5.65682H28.6617V18.3311C28.6617 19.4779 28.4203 20.4963 27.9374 21.3865C27.4546 22.2919 26.753 23.001 25.8326 23.514C24.9273 24.027 23.8409 24.2835 22.5735 24.2835C20.8836 24.2835 19.4803 23.8837 18.3638 23.084C17.2472 22.2994 16.6135 21.2281 16.4626 19.8702H19.0201C19.2163 20.519 19.6312 21.0395 20.2649 21.4318C20.9137 21.8392 21.6833 22.0429 22.5735 22.0429C23.6146 22.0429 24.452 21.726 25.0857 21.0923C25.7345 20.4586 26.0589 19.5382 26.0589 18.3311V16.2489C25.6213 16.8374 25.0254 17.3353 24.2709 17.7427C23.5316 18.135 22.6866 18.3311 21.7361 18.3311C20.6497 18.3311 19.6539 18.0595 18.7485 17.5164C17.8583 16.9581 17.1492 16.1886 16.6211 15.2078C16.1081 14.212 15.8516 13.0879 15.8516 11.8355C15.8516 10.5832 16.1081 9.4742 16.6211 8.50854C17.1492 7.54288 17.8583 6.796 18.7485 6.2679C19.6539 5.72472 20.6497 5.45312 21.7361 5.45312ZM26.0589 11.8808C26.0589 11.0208 25.8778 10.2739 25.5157 9.64017C25.1687 9.00646 24.7085 8.52363 24.1351 8.19168C23.5618 7.85974 22.9431 7.69376 22.2792 7.69376C21.6154 7.69376 20.9967 7.85974 20.4234 8.19168C19.85 8.50854 19.3823 8.98383 19.0201 9.61754C18.6731 10.2362 18.4996 10.9755 18.4996 11.8355C18.4996 12.6956 18.6731 13.45 19.0201 14.0988C19.3823 14.7476 19.85 15.2455 20.4234 15.5926C21.0118 15.9245 21.6304 16.0905 22.2792 16.0905C22.9431 16.0905 23.5618 15.9245 24.1351 15.5926C24.7085 15.2606 25.1687 14.7778 25.5157 14.1441C25.8778 13.4953 26.0589 12.7409 26.0589 11.8808Z" fill="#2D77B1"></path><path d="M10.411 14.9135H3.82493L2.69329 18.1274H0L5.63554 2.375H8.62306L14.2586 18.1274H11.5427L10.411 14.9135ZM9.6868 12.8087L7.1293 5.49831L4.54917 12.8087H9.6868Z" fill="#2D77B1"></path><path d="M129.715 4.18705C129.036 4.18705 128.478 3.9909 128.04 3.5986C127.617 3.19121 127.406 2.69329 127.406 2.10484C127.406 1.5013 127.617 1.00338 128.04 0.611083C128.478 0.203694 129.036 0 129.715 0C130.379 0 130.922 0.203694 131.344 0.611083C131.782 1.00338 132.001 1.5013 132.001 2.10484C132.001 2.69329 131.782 3.19121 131.344 3.5986C130.922 3.9909 130.379 4.18705 129.715 4.18705ZM131.639 5.49975V18.1288H127.768V5.49975H131.639Z" fill="#8DCBED"></path><path d="M119.29 14.5078L122.029 5.5H126.148L121.667 18.129H116.891L112.41 5.5H116.552L119.29 14.5078Z" fill="#8DCBED"></path><path d="M111.569 11.6122C111.569 11.9743 111.546 12.3515 111.501 12.7438H102.742C102.802 13.5284 103.051 14.132 103.489 14.5545C103.942 14.9618 104.492 15.1655 105.141 15.1655C106.107 15.1655 106.778 14.7581 107.155 13.9434H111.275C111.063 14.7732 110.679 15.5201 110.12 16.184C109.577 16.8479 108.891 17.3685 108.061 17.7457C107.231 18.1229 106.303 18.3115 105.277 18.3115C104.04 18.3115 102.938 18.0474 101.973 17.5193C101.007 16.9912 100.252 16.2368 99.7093 15.2561C99.1661 14.2753 98.8945 13.1286 98.8945 11.8159C98.8945 10.5032 99.1586 9.35648 99.6867 8.37573C100.23 7.39498 100.984 6.64055 101.95 6.11246C102.916 5.58436 104.025 5.32031 105.277 5.32031C106.499 5.32031 107.585 5.57682 108.536 6.08983C109.487 6.60283 110.226 7.33462 110.754 8.2852C111.297 9.23577 111.569 10.3448 111.569 11.6122ZM107.608 10.5937C107.608 9.92984 107.382 9.40174 106.929 9.00944C106.476 8.61714 105.911 8.42099 105.232 8.42099C104.583 8.42099 104.032 8.6096 103.579 8.98681C103.142 9.36402 102.87 9.89966 102.765 10.5937H107.608Z" fill="#8DCBED"></path><path d="M93.8468 7.60782C94.2994 6.91375 94.8652 6.37057 95.5442 5.97827C96.2232 5.57088 96.9776 5.36719 97.8075 5.36719V9.46371H96.7437C95.7781 9.46371 95.0538 9.67494 94.571 10.0974C94.0882 10.5048 93.8468 11.2291 93.8468 12.2702V18.132H89.9766V5.50298H93.8468V7.60782Z" fill="#8DCBED"></path><path d="M87.9601 7.35718C87.9601 8.27757 87.7488 9.12253 87.3263 9.89204C86.9039 10.6465 86.2551 11.2575 85.3799 11.7253C84.5048 12.193 83.4184 12.4269 82.1208 12.4269H79.7218V18.1303H75.8516V2.24219H82.1208C83.3883 2.24219 84.4595 2.46097 85.3347 2.89854C86.2098 3.3361 86.8661 3.93964 87.3037 4.70915C87.7413 5.47866 87.9601 6.36134 87.9601 7.35718ZM81.8266 9.34886C82.5659 9.34886 83.1167 9.17534 83.4788 8.8283C83.8409 8.48127 84.022 7.99089 84.022 7.35718C84.022 6.72346 83.8409 6.23309 83.4788 5.88605C83.1167 5.53902 82.5659 5.3655 81.8266 5.3655H79.7218V9.34886H81.8266Z" fill="#8DCBED"></path></svg>
